<svg width="20" height="20" viewBox="0 0 20 20" fill="none" xmlns="http://www.w3.org/2000/svg">
<g clip-path="url(#clip0_15_1654)">
<path d="M5.21789 12.0246L5.21806 12.0247C6.45795 12.6447 8.17495 13 10 13C11.825 13 13.542 12.6447 14.7819 12.0247L14.7821 12.0246C15.2592 11.7859 15.6245 11.5334 15.8786 11.286C16.1082 11.0626 16.3333 10.7591 16.3333 10.4167V8.6075V7.71059L15.5704 8.1822C14.2952 8.97055 12.2908 9.5 10 9.5C7.70938 9.5 5.70486 8.96979 4.42939 8.18209L3.66667 7.71105V8.6075V10.4167C3.66667 10.7591 3.89182 11.0626 4.12135 11.286C4.37555 11.5334 4.74083 11.7859 5.21789 12.0246ZM16.3333 12.7742V11.8773L15.5704 12.3489C14.2952 13.1372 12.2908 13.6667 10 13.6667C7.70938 13.6667 5.70486 13.1365 4.42939 12.3488L3.66667 11.8777V12.7742V14.5833C3.66667 14.9258 3.89182 15.2292 4.12135 15.4527C4.37555 15.7001 4.74083 15.9525 5.21789 16.1913L5.21806 16.1914C6.45795 16.8113 8.17495 17.1667 10 17.1667C11.825 17.1667 13.542 16.8113 14.7819 16.1914L14.7821 16.1913C15.2592 15.9525 15.6245 15.7001 15.8786 15.4527C16.1082 15.2292 16.3333 14.9258 16.3333 14.5833V12.7742ZM14.7819 7.85805L14.7821 7.85796C15.2592 7.61921 15.6245 7.36676 15.8786 7.11933C16.1082 6.89591 16.3333 6.59245 16.3333 6.25C16.3333 5.90755 16.1082 5.60409 15.8786 5.38067C15.6245 5.13324 15.2592 4.88079 14.7821 4.64204L14.7819 4.64195C13.542 4.02201 11.825 3.66667 10 3.66667C8.17495 3.66667 6.45795 4.02201 5.21806 4.64195L5.21789 4.64204C4.74083 4.88079 4.37555 5.13324 4.12135 5.38067C3.89182 5.60409 3.66667 5.90755 3.66667 6.25C3.66667 6.59245 3.89182 6.89591 4.12135 7.11933C4.37555 7.36676 4.74083 7.61921 5.21789 7.85796L5.21806 7.85805C6.45795 8.47799 8.17495 8.83333 10 8.83333C11.825 8.83333 13.542 8.47799 14.7819 7.85805ZM3 14.5833V6.25C3 5.50603 3.61629 4.69775 4.92048 4.04565C6.19473 3.40853 7.98998 3 10 3C12.01 3 13.8053 3.40853 15.0795 4.04565C16.3837 4.69775 17 5.50603 17 6.25V14.5833C17 15.3273 16.3837 16.1356 15.0795 16.7877C13.8053 17.4248 12.01 17.8333 10 17.8333C7.98998 17.8333 6.19473 17.4248 4.92048 16.7877C3.61629 16.1356 3 15.3273 3 14.5833Z" fill="#686F73" stroke="#686F73"/>
</g>
<defs>
<clipPath id="clip0_15_1654">
<rect width="20" height="20" fill="white"/>
</clipPath>
</defs>
</svg>
