<svg width="20" height="20" viewBox="0 0 20 20" fill="none" xmlns="http://www.w3.org/2000/svg">
<path d="M8.39167 2.35003L2.61666 6.97502C1.96666 7.49169 1.55 8.58338 1.69166 9.40005L2.8 16.0334C3 17.2167 4.13333 18.175 5.33333 18.175H14.6667C15.8583 18.175 17 17.2084 17.2 16.0334L18.3083 9.40005C18.4417 8.58338 18.025 7.49169 17.3833 6.97502L11.6083 2.35837C10.7167 1.64171 9.275 1.6417 8.39167 2.35003Z" stroke="#686F73" stroke-width="1.5" stroke-linecap="round" stroke-linejoin="round"/>
<path d="M9.99999 12.9167C11.1506 12.9167 12.0833 11.9839 12.0833 10.8333C12.0833 9.68274 11.1506 8.75 9.99999 8.75C8.8494 8.75 7.91666 9.68274 7.91666 10.8333C7.91666 11.9839 8.8494 12.9167 9.99999 12.9167Z" stroke="#686F73" stroke-width="1.5" stroke-linecap="round" stroke-linejoin="round"/>
</svg>
