<svg width="20" height="20" viewBox="0 0 20 20" fill="none" xmlns="http://www.w3.org/2000/svg">
<path d="M17.5667 7.15002V12.85C17.5667 13.7833 17.0667 14.65 16.2583 15.125L11.3083 17.9834C10.5 18.45 9.49999 18.45 8.68332 17.9834L3.73332 15.125C2.92499 14.6584 2.42499 13.7917 2.42499 12.85V7.15002C2.42499 6.21669 2.92499 5.34998 3.73332 4.87498L8.68332 2.01666C9.49166 1.54999 10.4917 1.54999 11.3083 2.01666L16.2583 4.87498C17.0667 5.34998 17.5667 6.20835 17.5667 7.15002Z" stroke="#3899FE" stroke-width="1.5" stroke-linecap="round" stroke-linejoin="round"/>
<path d="M9.99999 9.16667C11.0723 9.16667 11.9417 8.29734 11.9417 7.22499C11.9417 6.15263 11.0723 5.28336 9.99999 5.28336C8.92763 5.28336 8.05832 6.15263 8.05832 7.22499C8.05832 8.29734 8.92763 9.16667 9.99999 9.16667Z" stroke="#3899FE" stroke-width="1.5" stroke-linecap="round" stroke-linejoin="round"/>
<path d="M13.3333 13.8833C13.3333 12.3833 11.8417 11.1667 9.99999 11.1667C8.15832 11.1667 6.66666 12.3833 6.66666 13.8833" stroke="#3899FE" stroke-width="1.5" stroke-linecap="round" stroke-linejoin="round"/>
</svg>
